<?xml version="1.0" encoding="utf-8" ?>
<svg baseProfile="tiny" height="100%" version="1.2" width="100%" xmlns="http://www.w3.org/2000/svg" xmlns:ev="http://www.w3.org/2001/xml-events" xmlns:xlink="http://www.w3.org/1999/xlink"><defs /><rect fill="none" height="226.8" stroke="black" width="226.8" x="0.0" y="0.0" /><rect fill="none" height="226.8" stroke="black" width="226.8" x="0.0" y="264.6" /><rect fill="none" height="226.8" stroke="black" width="226.8" x="0.0" y="529.2" /><rect fill="none" height="226.8" stroke="black" width="226.8" x="0.0" y="793.8" /><rect fill="none" height="226.8" stroke="black" width="226.8" x="0.0" y="1058.4" /><rect fill="none" height="226.8" stroke="black" width="226.8" x="264.6" y="0.0" /><rect fill="none" height="226.8" stroke="black" width="226.8" x="264.6" y="264.6" /><rect fill="none" height="226.8" stroke="black" width="226.8" x="264.6" y="529.2" /><rect fill="none" height="226.8" stroke="black" width="226.8" x="264.6" y="793.8" /><rect fill="none" height="226.8" stroke="black" width="226.8" x="264.6" y="1058.4" /><rect fill="none" height="226.8" stroke="black" width="226.8" x="529.2" y="0.0" /><rect fill="none" height="226.8" stroke="black" width="226.8" x="529.2" y="264.6" /><rect fill="none" height="226.8" stroke="black" width="226.8" x="529.2" y="529.2" /><rect fill="none" height="226.8" stroke="black" width="226.8" x="529.2" y="793.8" /><rect fill="none" height="226.8" stroke="black" width="226.8" x="529.2" y="1058.4" /><rect fill="none" height="226.8" stroke="black" width="226.8" x="793.8" y="0.0" /><rect fill="none" height="226.8" stroke="black" width="226.8" x="793.8" y="264.6" /><rect fill="none" height="226.8" stroke="black" width="226.8" x="793.8" y="529.2" /><rect fill="none" height="226.8" stroke="black" width="226.8" x="793.8" y="793.8" /><rect fill="none" height="226.8" stroke="black" width="226.8" x="793.8" y="1058.4" /><rect fill="none" height="226.8" stroke="black" width="226.8" x="1058.4" y="0.0" /><rect fill="none" height="226.8" stroke="black" width="226.8" x="1058.4" y="264.6" /><rect fill="none" height="226.8" stroke="black" width="226.8" x="1058.4" y="529.2" /><rect fill="none" height="226.8" stroke="black" width="226.8" x="1058.4" y="793.8" /><rect fill="none" height="226.8" stroke="black" width="226.8" x="1058.4" y="1058.4" /></svg>