<?xml version="1.0" encoding="utf-8" ?>
<svg baseProfile="tiny" height="100%" version="1.2" width="100%" xmlns="http://www.w3.org/2000/svg" xmlns:ev="http://www.w3.org/2001/xml-events" xmlns:xlink="http://www.w3.org/1999/xlink"><defs /><rect fill="none" height="75.6" stroke="black" width="75.6" x="0.0" y="0.0" /><rect fill="none" height="75.6" stroke="black" width="75.6" x="0.0" y="113.4" /><rect fill="none" height="75.6" stroke="black" width="75.6" x="0.0" y="226.8" /><rect fill="none" height="75.6" stroke="black" width="75.6" x="0.0" y="340.2" /><rect fill="none" height="75.6" stroke="black" width="75.6" x="0.0" y="453.6" /><rect fill="none" height="75.6" stroke="black" width="75.6" x="0.0" y="567.0" /><rect fill="none" height="75.6" stroke="black" width="75.6" x="0.0" y="680.4" /><rect fill="none" height="75.6" stroke="black" width="75.6" x="113.4" y="0.0" /><rect fill="none" height="75.6" stroke="black" width="75.6" x="113.4" y="113.4" /><rect fill="none" height="75.6" stroke="black" width="75.6" x="113.4" y="226.8" /><rect fill="none" height="75.6" stroke="black" width="75.6" x="113.4" y="340.2" /><rect fill="none" height="75.6" stroke="black" width="75.6" x="113.4" y="453.6" /><rect fill="none" height="75.6" stroke="black" width="75.6" x="113.4" y="567.0" /><rect fill="none" height="75.6" stroke="black" width="75.6" x="113.4" y="680.4" /><rect fill="none" height="75.6" stroke="black" width="75.6" x="226.8" y="0.0" /><rect fill="none" height="75.6" stroke="black" width="75.6" x="226.8" y="113.4" /><rect fill="none" height="75.6" stroke="black" width="75.6" x="226.8" y="226.8" /><rect fill="none" height="75.6" stroke="black" width="75.6" x="226.8" y="340.2" /><rect fill="none" height="75.6" stroke="black" width="75.6" x="226.8" y="453.6" /><rect fill="none" height="75.6" stroke="black" width="75.6" x="226.8" y="567.0" /><rect fill="none" height="75.6" stroke="black" width="75.6" x="226.8" y="680.4" /><rect fill="none" height="75.6" stroke="black" width="75.6" x="340.2" y="0.0" /><rect fill="none" height="75.6" stroke="black" width="75.6" x="340.2" y="113.4" /><rect fill="none" height="75.6" stroke="black" width="75.6" x="340.2" y="226.8" /><rect fill="none" height="75.6" stroke="black" width="75.6" x="340.2" y="340.2" /><rect fill="none" height="75.6" stroke="black" width="75.6" x="340.2" y="453.6" /><rect fill="none" height="75.6" stroke="black" width="75.6" x="340.2" y="567.0" /><rect fill="none" height="75.6" stroke="black" width="75.6" x="340.2" y="680.4" /><rect fill="none" height="75.6" stroke="black" width="75.6" x="453.6" y="0.0" /><rect fill="none" height="75.6" stroke="black" width="75.6" x="453.6" y="113.4" /><rect fill="none" height="75.6" stroke="black" width="75.6" x="453.6" y="226.8" /><rect fill="none" height="75.6" stroke="black" width="75.6" x="453.6" y="340.2" /><rect fill="none" height="75.6" stroke="black" width="75.6" x="453.6" y="453.6" /><rect fill="none" height="75.6" stroke="black" width="75.6" x="453.6" y="567.0" /><rect fill="none" height="75.6" stroke="black" width="75.6" x="453.6" y="680.4" /></svg>