<?xml version="1.0" encoding="utf-8" ?>
<svg baseProfile="tiny" height="453.6" version="1.2" width="340.2" xmlns="http://www.w3.org/2000/svg" xmlns:ev="http://www.w3.org/2001/xml-events" xmlns:xlink="http://www.w3.org/1999/xlink"><defs /><polygon fill="none" points="340.2,226.8 311.8073,231.4383 339.9951,237.9285 311.4659,240.7037 339.3809,249.0303 310.784,249.9356 338.3589,260.0785 309.7631,259.1118 336.9316,271.0465 308.4058,268.2101 335.1023,281.9079 306.7153,277.2087 332.8756,292.6366 304.6956,286.0858 330.2566,303.2066 302.3517,294.8202 327.2519,313.5926 299.6892,303.3906 323.8686,323.7695 296.7145,311.7765 320.1148,333.7128 293.4348,319.9578 315.9996,343.3985 289.858,327.9146 311.533,352.8033 285.9926,335.6277 306.7256,361.9046 281.8481,343.0788 301.5891,370.6804 277.4344,350.2497 296.1358,379.1096 272.762,357.1232 290.3789,387.1718 267.8424,363.6827 284.3322,394.8477 262.6873,369.9125 278.0103,402.1188 257.3091,375.7975 271.4285,408.9675 251.7208,381.3235 264.6025,415.3773 245.9359,386.4773 257.5489,421.3328 239.9683,391.2464 250.2846,426.8197 233.8324,395.6194 242.8271,431.8248 227.543,399.5856 235.1945,436.3359 221.1151,403.1356 227.405,440.3422 214.5644,406.2608 219.4774,443.8341 207.9065,408.9537 211.4309,446.8031 201.1576,411.2077 203.2849,449.2421 194.3338,413.0175 195.0589,451.1452 187.4517,414.3786 186.7727,452.5079 180.5278,415.2879 178.4464,453.3268 173.5787,415.7431 170.1,453.6 166.6213,415.7431 161.7536,453.3268 159.6722,415.2879 153.4273,452.5079 152.7483,414.3786 145.1411,451.1452 145.8662,413.0175 136.9151,449.2421 139.0424,411.2077 128.7691,446.8031 132.2935,408.9537 120.7226,443.8341 125.6356,406.2608 112.795,440.3422 119.0849,403.1356 105.0055,436.3359 112.657,399.5856 97.3729,431.8248 106.3676,395.6194 89.9154,426.8197 100.2317,391.2464 82.6511,421.3328 94.2641,386.4773 75.5975,415.3773 88.4792,381.3235 68.7715,408.9675 82.8909,375.7975 62.1897,402.1188 77.5127,369.9125 55.8678,394.8477 72.3576,363.6827 49.8211,387.1718 67.438,357.1232 44.0642,379.1096 62.7656,350.2497 38.6109,370.6804 58.3519,343.0788 33.4744,361.9046 54.2074,335.6277 28.667,352.8033 50.342,327.9146 24.2004,343.3985 46.7652,319.9578 20.0852,333.7128 43.4855,311.7765 16.3314,323.7695 40.5108,303.3906 12.9481,313.5926 37.8483,294.8202 9.9434,303.2066 35.5044,286.0858 7.3244,292.6366 33.4847,277.2087 5.0977,281.9079 31.7942,268.2101 3.2684,271.0465 30.4369,259.1118 1.8411,260.0785 29.416,249.9356 0.8191,249.0303 28.7341,240.7037 0.2049,237.9285 28.3927,231.4383 0.0,226.8 28.3927,222.1617 0.2049,215.6715 28.7341,212.8963 0.8191,204.5697 29.416,203.6644 1.8411,193.5215 30.4369,194.4882 3.2684,182.5535 31.7942,185.3899 5.0977,171.6921 33.4847,176.3913 7.3244,160.9634 35.5044,167.5142 9.9434,150.3934 37.8483,158.7798 12.9481,140.0074 40.5108,150.2094 16.3314,129.8305 43.4855,141.8235 20.0852,119.8872 46.7652,133.6422 24.2004,110.2015 50.342,125.6854 28.667,100.7967 54.2074,117.9723 33.4744,91.6954 58.3519,110.5212 38.6109,82.9196 62.7656,103.3503 44.0642,74.4904 67.438,96.4768 49.8211,66.4282 72.3576,89.9173 55.8678,58.7523 77.5127,83.6875 62.1897,51.4812 82.8909,77.8025 68.7715,44.6325 88.4792,72.2765 75.5975,38.2227 94.2641,67.1227 82.6511,32.2672 100.2317,62.3536 89.9154,26.7803 106.3676,57.9806 97.3729,21.7752 112.657,54.0144 105.0055,17.2641 119.0849,50.4644 112.795,13.2578 125.6356,47.3392 120.7226,9.7659 132.2935,44.6463 128.7691,6.7969 139.0424,42.3923 136.9151,4.3579 145.8662,40.5825 145.1411,2.4548 152.7483,39.2214 153.4273,1.0921 159.6722,38.3121 161.7536,0.2732 166.6213,37.8569 170.1,0.0 173.5787,37.8569 178.4464,0.2732 180.5278,38.3121 186.7727,1.0921 187.4517,39.2214 195.0589,2.4548 194.3338,40.5825 203.2849,4.3579 201.1576,42.3923 211.4309,6.7969 207.9065,44.6463 219.4774,9.7659 214.5644,47.3392 227.405,13.2578 221.1151,50.4644 235.1945,17.2641 227.543,54.0144 242.8271,21.7752 233.8324,57.9806 250.2846,26.7803 239.9683,62.3536 257.5489,32.2672 245.9359,67.1227 264.6025,38.2227 251.7208,72.2765 271.4285,44.6325 257.3091,77.8025 278.0103,51.4812 262.6873,83.6875 284.3322,58.7523 267.8424,89.9173 290.3789,66.4282 272.762,96.4768 296.1358,74.4904 277.4344,103.3503 301.5891,82.9196 281.8481,110.5212 306.7256,91.6954 285.9926,117.9723 311.533,100.7967 289.858,125.6854 315.9996,110.2015 293.4348,133.6422 320.1148,119.8872 296.7145,141.8235 323.8686,129.8305 299.6892,150.2094 327.2519,140.0074 302.3517,158.7798 330.2566,150.3934 304.6956,167.5142 332.8756,160.9634 306.7153,176.3913 335.1023,171.6921 308.4058,185.3899 336.9316,182.5535 309.7631,194.4882 338.3589,193.5215 310.784,203.6644 339.3809,204.5697 311.4659,212.8963 339.9951,215.6715 311.8073,222.1617" stroke="black" stroke-width="0.1" /></svg>