<?xml version="1.0" encoding="utf-8" ?>
<svg baseProfile="tiny" height="100%" version="1.2" width="100%" xmlns="http://www.w3.org/2000/svg" xmlns:ev="http://www.w3.org/2001/xml-events" xmlns:xlink="http://www.w3.org/1999/xlink"><defs /><polygon fill="none" points="22.68,0.0 14.1707,0.4174 22.6527,1.6693 14.1366,1.2513 22.5708,3.3345 14.0684,2.0822 22.4345,4.9918 13.9663,2.9081 22.2442,6.637 13.8306,3.7269 22.0003,8.2662 13.6615,4.5368 21.7034,9.8755 13.4596,5.3357 21.3542,11.461 13.2252,6.1218 20.9536,13.0189 12.9589,6.8932 20.5025,14.5454 12.6615,7.6479 20.002,16.0369 12.3335,8.3842 19.4533,17.4898 11.9758,9.1003 18.8577,18.9005 11.5893,9.7945 18.2167,20.2657 11.1748,10.4651 17.5319,21.5821 10.7334,11.1105 16.8048,22.8464 10.2662,11.7291 16.0372,24.0558 9.7742,12.3194 15.231,25.2072 9.2587,12.8801 14.388,26.2978 8.7209,13.4098 13.5105,27.3251 8.1621,13.9071 12.6003,28.2866 7.5836,14.371 11.6599,29.1799 6.9868,14.8002 10.6913,30.003 6.3732,15.1937 9.6969,30.7537 5.7443,15.5507 8.6793,31.4304 5.1015,15.8702 7.6407,32.0313 4.4464,16.1515 6.5837,32.5551 3.7807,16.3938 5.5108,33.0005 3.1058,16.5967 4.4246,33.3663 2.4234,16.7596 3.3278,33.6518 1.7352,16.8821 2.223,33.8562 1.0428,16.9639 1.1129,33.979 0.3479,17.0049 0.0,34.02 -0.3479,17.0049 -1.1129,33.979 -1.0428,16.9639 -2.223,33.8562 -1.7352,16.8821 -3.3278,33.6518 -2.4234,16.7596 -4.4246,33.3663 -3.1058,16.5967 -5.5108,33.0005 -3.7807,16.3938 -6.5837,32.5551 -4.4464,16.1515 -7.6407,32.0313 -5.1015,15.8702 -8.6793,31.4304 -5.7443,15.5507 -9.6969,30.7537 -6.3732,15.1937 -10.6913,30.003 -6.9868,14.8002 -11.6599,29.1799 -7.5836,14.371 -12.6003,28.2866 -8.1621,13.9071 -13.5105,27.3251 -8.7209,13.4098 -14.388,26.2978 -9.2587,12.8801 -15.231,25.2072 -9.7742,12.3194 -16.0372,24.0558 -10.2662,11.7291 -16.8048,22.8464 -10.7334,11.1105 -17.5319,21.5821 -11.1748,10.4651 -18.2167,20.2657 -11.5893,9.7945 -18.8577,18.9005 -11.9758,9.1003 -19.4533,17.4898 -12.3335,8.3842 -20.002,16.0369 -12.6615,7.6479 -20.5025,14.5454 -12.9589,6.8932 -20.9536,13.0189 -13.2252,6.1218 -21.3542,11.461 -13.4596,5.3357 -21.7034,9.8755 -13.6615,4.5368 -22.0003,8.2662 -13.8306,3.7269 -22.2442,6.637 -13.9663,2.9081 -22.4345,4.9918 -14.0684,2.0822 -22.5708,3.3345 -14.1366,1.2513 -22.6527,1.6693 -14.1707,0.4174 -22.68,0.0 -14.1707,-0.4174 -22.6527,-1.6693 -14.1366,-1.2513 -22.5708,-3.3345 -14.0684,-2.0822 -22.4345,-4.9918 -13.9663,-2.9081 -22.2442,-6.637 -13.8306,-3.7269 -22.0003,-8.2662 -13.6615,-4.5368 -21.7034,-9.8755 -13.4596,-5.3357 -21.3542,-11.461 -13.2252,-6.1218 -20.9536,-13.0189 -12.9589,-6.8932 -20.5025,-14.5454 -12.6615,-7.6479 -20.002,-16.0369 -12.3335,-8.3842 -19.4533,-17.4898 -11.9758,-9.1003 -18.8577,-18.9005 -11.5893,-9.7945 -18.2167,-20.2657 -11.1748,-10.4651 -17.5319,-21.5821 -10.7334,-11.1105 -16.8048,-22.8464 -10.2662,-11.7291 -16.0372,-24.0558 -9.7742,-12.3194 -15.231,-25.2072 -9.2587,-12.8801 -14.388,-26.2978 -8.7209,-13.4098 -13.5105,-27.3251 -8.1621,-13.9071 -12.6003,-28.2866 -7.5836,-14.371 -11.6599,-29.1799 -6.9868,-14.8002 -10.6913,-30.003 -6.3732,-15.1937 -9.6969,-30.7537 -5.7443,-15.5507 -8.6793,-31.4304 -5.1015,-15.8702 -7.6407,-32.0313 -4.4464,-16.1515 -6.5837,-32.5551 -3.7807,-16.3938 -5.5108,-33.0005 -3.1058,-16.5967 -4.4246,-33.3663 -2.4234,-16.7596 -3.3278,-33.6518 -1.7352,-16.8821 -2.223,-33.8562 -1.0428,-16.9639 -1.1129,-33.979 -0.3479,-17.0049 -0.0,-34.02 0.3479,-17.0049 1.1129,-33.979 1.0428,-16.9639 2.223,-33.8562 1.7352,-16.8821 3.3278,-33.6518 2.4234,-16.7596 4.4246,-33.3663 3.1058,-16.5967 5.5108,-33.0005 3.7807,-16.3938 6.5837,-32.5551 4.4464,-16.1515 7.6407,-32.0313 5.1015,-15.8702 8.6793,-31.4304 5.7443,-15.5507 9.6969,-30.7537 6.3732,-15.1937 10.6913,-30.003 6.9868,-14.8002 11.6599,-29.1799 7.5836,-14.371 12.6003,-28.2866 8.1621,-13.9071 13.5105,-27.3251 8.7209,-13.4098 14.388,-26.2978 9.2587,-12.8801 15.231,-25.2072 9.7742,-12.3194 16.0372,-24.0558 10.2662,-11.7291 16.8048,-22.8464 10.7334,-11.1105 17.5319,-21.5821 11.1748,-10.4651 18.2167,-20.2657 11.5893,-9.7945 18.8577,-18.9005 11.9758,-9.1003 19.4533,-17.4898 12.3335,-8.3842 20.002,-16.0369 12.6615,-7.6479 20.5025,-14.5454 12.9589,-6.8932 20.9536,-13.0189 13.2252,-6.1218 21.3542,-11.461 13.4596,-5.3357 21.7034,-9.8755 13.6615,-4.5368 22.0003,-8.2662 13.8306,-3.7269 22.2442,-6.637 13.9663,-2.9081 22.4345,-4.9918 14.0684,-2.0822 22.5708,-3.3345 14.1366,-1.2513 22.6527,-1.6693 14.1707,-0.4174" stroke="black" stroke-width="0.1" /></svg>