<?xml version="1.0" encoding="utf-8" ?>
<svg baseProfile="tiny" height="45.36" version="1.2" width="34.02" xmlns="http://www.w3.org/2000/svg" xmlns:ev="http://www.w3.org/2001/xml-events" xmlns:xlink="http://www.w3.org/1999/xlink"><defs /><polygon fill="none" points="34.02,22.68 31.1807,23.0974 33.9995,23.7929 31.1466,23.9313 33.9381,24.903 31.0784,24.7622 33.8359,26.0078 30.9763,25.5881 33.6932,27.1046 30.8406,26.4069 33.5102,28.1908 30.6715,27.2168 33.2876,29.2637 30.4696,28.0157 33.0257,30.3207 30.2352,28.8018 32.7252,31.3593 29.9689,29.5732 32.3869,32.3769 29.6715,30.3279 32.0115,33.3713 29.3435,31.0642 31.6,34.3399 28.9858,31.7803 31.1533,35.2803 28.5993,32.4745 30.6726,36.1905 28.1848,33.1451 30.1589,37.068 27.7434,33.7905 29.6136,37.911 27.2762,34.4091 29.0379,38.7172 26.7842,34.9994 28.4332,39.4848 26.2687,35.5601 27.801,40.2119 25.7309,36.0898 27.1428,40.8967 25.1721,36.5871 26.4602,41.5377 24.5936,37.051 25.7549,42.1333 23.9968,37.4802 25.0285,42.682 23.3832,37.8737 24.2827,43.1825 22.7543,38.2307 23.5194,43.6336 22.1115,38.5502 22.7405,44.0342 21.4564,38.8315 21.9477,44.3834 20.7907,39.0738 21.1431,44.6803 20.1158,39.2767 20.3285,44.9242 19.4334,39.4396 19.5059,45.1145 18.7452,39.5621 18.6773,45.2508 18.0528,39.6439 17.8446,45.3327 17.3579,39.6849 17.01,45.36 16.6621,39.6849 16.1754,45.3327 15.9672,39.6439 15.3427,45.2508 15.2748,39.5621 14.5141,45.1145 14.5866,39.4396 13.6915,44.9242 13.9042,39.2767 12.8769,44.6803 13.2293,39.0738 12.0723,44.3834 12.5636,38.8315 11.2795,44.0342 11.9085,38.5502 10.5006,43.6336 11.2657,38.2307 9.7373,43.1825 10.6368,37.8737 8.9915,42.682 10.0232,37.4802 8.2651,42.1333 9.4264,37.051 7.5598,41.5377 8.8479,36.5871 6.8772,40.8967 8.2891,36.0898 6.219,40.2119 7.7513,35.5601 5.5868,39.4848 7.2358,34.9994 4.9821,38.7172 6.7438,34.4091 4.4064,37.911 6.2766,33.7905 3.8611,37.068 5.8352,33.1451 3.3474,36.1905 5.4207,32.4745 2.8667,35.2803 5.0342,31.7803 2.42,34.3399 4.6765,31.0642 2.0085,33.3713 4.3485,30.3279 1.6331,32.3769 4.0511,29.5732 1.2948,31.3593 3.7848,28.8018 0.9943,30.3207 3.5504,28.0157 0.7324,29.2637 3.3485,27.2168 0.5098,28.1908 3.1794,26.4069 0.3268,27.1046 3.0437,25.5881 0.1841,26.0078 2.9416,24.7622 0.0819,24.903 2.8734,23.9313 0.0205,23.7929 2.8393,23.0974 0.0,22.68 2.8393,22.2626 0.0205,21.5671 2.8734,21.4287 0.0819,20.457 2.9416,20.5978 0.1841,19.3522 3.0437,19.7719 0.3268,18.2554 3.1794,18.9531 0.5098,17.1692 3.3485,18.1432 0.7324,16.0963 3.5504,17.3443 0.9943,15.0393 3.7848,16.5582 1.2948,14.0007 4.0511,15.7868 1.6331,12.9831 4.3485,15.0321 2.0085,11.9887 4.6765,14.2958 2.42,11.0201 5.0342,13.5797 2.8667,10.0797 5.4207,12.8855 3.3474,9.1695 5.8352,12.2149 3.8611,8.292 6.2766,11.5695 4.4064,7.449 6.7438,10.9509 4.9821,6.6428 7.2358,10.3606 5.5868,5.8752 7.7513,9.7999 6.219,5.1481 8.2891,9.2702 6.8772,4.4633 8.8479,8.7729 7.5598,3.8223 9.4264,8.309 8.2651,3.2267 10.0232,7.8798 8.9915,2.678 10.6368,7.4863 9.7373,2.1775 11.2657,7.1293 10.5006,1.7264 11.9085,6.8098 11.2795,1.3258 12.5636,6.5285 12.0723,0.9766 13.2293,6.2862 12.8769,0.6797 13.9042,6.0833 13.6915,0.4358 14.5866,5.9204 14.5141,0.2455 15.2748,5.7979 15.3427,0.1092 15.9672,5.7161 16.1754,0.0273 16.6621,5.6751 17.01,0.0 17.3579,5.6751 17.8446,0.0273 18.0528,5.7161 18.6773,0.1092 18.7452,5.7979 19.5059,0.2455 19.4334,5.9204 20.3285,0.4358 20.1158,6.0833 21.1431,0.6797 20.7907,6.2862 21.9477,0.9766 21.4564,6.5285 22.7405,1.3258 22.1115,6.8098 23.5194,1.7264 22.7543,7.1293 24.2827,2.1775 23.3832,7.4863 25.0285,2.678 23.9968,7.8798 25.7549,3.2267 24.5936,8.309 26.4602,3.8223 25.1721,8.7729 27.1428,4.4633 25.7309,9.2702 27.801,5.1481 26.2687,9.7999 28.4332,5.8752 26.7842,10.3606 29.0379,6.6428 27.2762,10.9509 29.6136,7.449 27.7434,11.5695 30.1589,8.292 28.1848,12.2149 30.6726,9.1695 28.5993,12.8855 31.1533,10.0797 28.9858,13.5797 31.6,11.0201 29.3435,14.2958 32.0115,11.9887 29.6715,15.0321 32.3869,12.9831 29.9689,15.7868 32.7252,14.0007 30.2352,16.5582 33.0257,15.0393 30.4696,17.3443 33.2876,16.0963 30.6715,18.1432 33.5102,17.1692 30.8406,18.9531 33.6932,18.2554 30.9763,19.7719 33.8359,19.3522 31.0784,20.5978 33.9381,20.457 31.1466,21.4287 33.9995,21.5671 31.1807,22.2626" stroke="black" stroke-width="0.1" /></svg>