<?xml version="1.0" encoding="utf-8" ?>
<svg baseProfile="tiny" height="45.36" version="1.2" width="34.02" xmlns="http://www.w3.org/2000/svg" xmlns:ev="http://www.w3.org/2001/xml-events" xmlns:xlink="http://www.w3.org/1999/xlink"><defs /><polygon fill="none" points="34.02,22.68 31.1807,23.1438 33.9995,23.7929 31.1466,24.0704 33.9381,24.903 31.0784,24.9936 33.8359,26.0078 30.9763,25.9112 33.6932,27.1046 30.8406,26.821 33.5102,28.1908 30.6715,27.7209 33.2876,29.2637 30.4696,28.6086 33.0257,30.3207 30.2352,29.482 32.7252,31.3593 29.9689,30.3391 32.3869,32.3769 29.6715,31.1777 32.0115,33.3713 29.3435,31.9958 31.6,34.3399 28.9858,32.7915 31.1533,35.2803 28.5993,33.5628 30.6726,36.1905 28.1848,34.3079 30.1589,37.068 27.7434,35.025 29.6136,37.911 27.2762,35.7123 29.0379,38.7172 26.7842,36.3683 28.4332,39.4848 26.2687,36.9912 27.801,40.2119 25.7309,37.5797 27.1428,40.8967 25.1721,38.1324 26.4602,41.5377 24.5936,38.6477 25.7549,42.1333 23.9968,39.1246 25.0285,42.682 23.3832,39.5619 24.2827,43.1825 22.7543,39.9586 23.5194,43.6336 22.1115,40.3136 22.7405,44.0342 21.4564,40.6261 21.9477,44.3834 20.7907,40.8954 21.1431,44.6803 20.1158,41.1208 20.3285,44.9242 19.4334,41.3017 19.5059,45.1145 18.7452,41.4379 18.6773,45.2508 18.0528,41.5288 17.8446,45.3327 17.3579,41.5743 17.01,45.36 16.6621,41.5743 16.1754,45.3327 15.9672,41.5288 15.3427,45.2508 15.2748,41.4379 14.5141,45.1145 14.5866,41.3017 13.6915,44.9242 13.9042,41.1208 12.8769,44.6803 13.2293,40.8954 12.0723,44.3834 12.5636,40.6261 11.2795,44.0342 11.9085,40.3136 10.5006,43.6336 11.2657,39.9586 9.7373,43.1825 10.6368,39.5619 8.9915,42.682 10.0232,39.1246 8.2651,42.1333 9.4264,38.6477 7.5598,41.5377 8.8479,38.1324 6.8772,40.8967 8.2891,37.5797 6.219,40.2119 7.7513,36.9912 5.5868,39.4848 7.2358,36.3683 4.9821,38.7172 6.7438,35.7123 4.4064,37.911 6.2766,35.025 3.8611,37.068 5.8352,34.3079 3.3474,36.1905 5.4207,33.5628 2.8667,35.2803 5.0342,32.7915 2.42,34.3399 4.6765,31.9958 2.0085,33.3713 4.3485,31.1777 1.6331,32.3769 4.0511,30.3391 1.2948,31.3593 3.7848,29.482 0.9943,30.3207 3.5504,28.6086 0.7324,29.2637 3.3485,27.7209 0.5098,28.1908 3.1794,26.821 0.3268,27.1046 3.0437,25.9112 0.1841,26.0078 2.9416,24.9936 0.0819,24.903 2.8734,24.0704 0.0205,23.7929 2.8393,23.1438 0.0,22.68 2.8393,22.2162 0.0205,21.5671 2.8734,21.2896 0.0819,20.457 2.9416,20.3664 0.1841,19.3522 3.0437,19.4488 0.3268,18.2554 3.1794,18.539 0.5098,17.1692 3.3485,17.6391 0.7324,16.0963 3.5504,16.7514 0.9943,15.0393 3.7848,15.878 1.2948,14.0007 4.0511,15.0209 1.6331,12.9831 4.3485,14.1823 2.0085,11.9887 4.6765,13.3642 2.42,11.0201 5.0342,12.5685 2.8667,10.0797 5.4207,11.7972 3.3474,9.1695 5.8352,11.0521 3.8611,8.292 6.2766,10.335 4.4064,7.449 6.7438,9.6477 4.9821,6.6428 7.2358,8.9917 5.5868,5.8752 7.7513,8.3688 6.219,5.1481 8.2891,7.7803 6.8772,4.4633 8.8479,7.2276 7.5598,3.8223 9.4264,6.7123 8.2651,3.2267 10.0232,6.2354 8.9915,2.678 10.6368,5.7981 9.7373,2.1775 11.2657,5.4014 10.5006,1.7264 11.9085,5.0464 11.2795,1.3258 12.5636,4.7339 12.0723,0.9766 13.2293,4.4646 12.8769,0.6797 13.9042,4.2392 13.6915,0.4358 14.5866,4.0583 14.5141,0.2455 15.2748,3.9221 15.3427,0.1092 15.9672,3.8312 16.1754,0.0273 16.6621,3.7857 17.01,0.0 17.3579,3.7857 17.8446,0.0273 18.0528,3.8312 18.6773,0.1092 18.7452,3.9221 19.5059,0.2455 19.4334,4.0583 20.3285,0.4358 20.1158,4.2392 21.1431,0.6797 20.7907,4.4646 21.9477,0.9766 21.4564,4.7339 22.7405,1.3258 22.1115,5.0464 23.5194,1.7264 22.7543,5.4014 24.2827,2.1775 23.3832,5.7981 25.0285,2.678 23.9968,6.2354 25.7549,3.2267 24.5936,6.7123 26.4602,3.8223 25.1721,7.2276 27.1428,4.4633 25.7309,7.7803 27.801,5.1481 26.2687,8.3688 28.4332,5.8752 26.7842,8.9917 29.0379,6.6428 27.2762,9.6477 29.6136,7.449 27.7434,10.335 30.1589,8.292 28.1848,11.0521 30.6726,9.1695 28.5993,11.7972 31.1533,10.0797 28.9858,12.5685 31.6,11.0201 29.3435,13.3642 32.0115,11.9887 29.6715,14.1823 32.3869,12.9831 29.9689,15.0209 32.7252,14.0007 30.2352,15.878 33.0257,15.0393 30.4696,16.7514 33.2876,16.0963 30.6715,17.6391 33.5102,17.1692 30.8406,18.539 33.6932,18.2554 30.9763,19.4488 33.8359,19.3522 31.0784,20.3664 33.9381,20.457 31.1466,21.2896 33.9995,21.5671 31.1807,22.2162" stroke="black" stroke-width="0.1" /></svg>